# xmcd CD database file
#
# Track frame offsets:
#	150
#	52620
#	96047
#	123915
#	153812
#	188002
#	238667
#	267735
#
# Disc length: 4285 seconds
#
# Revision: 0
# Processed by: cddbd v1.4PL0 Copyright (c) Steve Scherf et al.
# Submitted via: CDex 1.40Beta9
#
DISCID=5c10bb08
DTITLE=Beethoven - Liszt - Smphony 4 and 5 piano transcriptions
DYEAR=1990
DGENRE=Classical
TTITLE0=Symphony 4, i. Adagio - Allegro vivace
TTITLE1=ii. Adagio
TTITLE2=iii. Allegro vivace
TTITLE3=iv. Allegro ma non troppo
TTITLE4=Symphony 5, 1. Allegro con brio
TTITLE5=ii. Andante maestoso
TTITLE6=iii. Scherzo: Allegro
TTITLE7=iv. Allegro
EXTD=YEAR: 1990 ID3G: 32
EXTT0=
EXTT1=
EXTT2=
EXTT3=
EXTT4=
EXTT5=
EXTT6=
EXTT7=
PLAYORDER=
